<svg width="134" height="134" viewBox="0 0 134 134" fill="none" xmlns="http://www.w3.org/2000/svg">
<path d="M66.9897 0L67.7813 0.0468998L68.1771 0.100501L68.5863 0.187601L69.331 0.4154C69.8453 0.604763 70.3343 0.856801 70.7868 1.1658L71.4845 1.7152L73.1951 3.1758C86.7284 14.4021 103.832 20.4303 121.423 20.1737L123.717 20.1067C125.217 20.0383 126.697 20.4746 127.919 21.3455C129.142 22.2165 130.036 23.4718 130.46 24.9106C133.756 36.1101 134.765 47.8573 133.426 59.4539C132.087 71.0505 128.427 82.26 122.665 92.4162C116.903 102.573 109.155 111.468 99.8822 118.575C90.6095 125.682 80.0009 130.854 68.687 133.786C67.5827 134.072 66.4236 134.072 65.3193 133.786C54.0047 130.855 43.3955 125.683 34.122 118.577C24.8484 111.47 17.0999 102.575 11.3369 92.4182C5.57385 82.2618 1.91387 71.0521 0.574466 59.4551C-0.76494 47.8581 0.243557 36.1106 3.54003 24.9106C3.9634 23.4718 4.85785 22.2165 6.08021 21.3455C7.30257 20.4746 8.78215 20.0383 10.2821 20.1067C28.6466 20.9451 46.6632 14.9074 60.8044 3.1758L62.5688 1.6683L63.2128 1.1658C63.6653 0.856801 64.1542 0.604763 64.6685 0.4154L65.4199 0.187601C65.6828 0.124176 65.9494 0.077184 66.2182 0.0468998L66.9897 0ZM67.0031 46.9C63.6181 46.8989 60.3578 48.1757 57.8758 50.4744C55.3937 52.7731 53.8734 55.9238 53.6195 59.295L53.586 60.3L53.6195 61.305C53.7849 63.4798 54.4794 65.5815 55.6427 67.4275C56.8059 69.2734 58.4028 70.8079 60.2945 71.8977V83.7499L60.3415 84.5338C60.5435 86.2296 61.3861 87.7843 62.6973 88.8804C64.0086 89.9764 65.6893 90.5311 67.3963 90.431C69.1032 90.3309 70.7075 89.5837 71.8813 88.3419C73.0551 87.1002 73.7098 85.4576 73.7117 83.7499L73.7184 71.9044C76.2766 70.4291 78.2758 68.1519 79.4058 65.426C80.5359 62.7002 80.7336 59.678 79.9683 56.8285C79.203 53.979 77.5175 51.4613 75.1733 49.6661C72.8291 47.871 69.9572 46.8986 67.0031 46.9Z" fill="white"/>
</svg>
