<svg width="1661" height="964" viewBox="0 0 1661 964" fill="none" xmlns="http://www.w3.org/2000/svg">
<g opacity="0.6">
<path d="M82.286 43.6168L41.143 0.937408V32.9467L0 64.9559H41.143V86.2961L82.286 43.6168Z" fill="#1755F4"/>
<path d="M143.429 0.937408L102.286 43.6168L143.429 86.2961V54.2869L184.572 22.2766H143.429V0.937408Z" fill="#1755F4"/>
<path d="M246.286 43.6168L205.143 0.937408V32.9467L164 64.9559H205.143V86.2961L246.286 43.6168Z" fill="#1755F4"/>
<path d="M307.429 0.937408L266.286 43.6168L307.429 86.2961V54.2869L348.572 22.2766H307.429V0.937408Z" fill="#1755F4"/>
<path d="M410.286 43.6168L369.143 0.937408V32.9467L328 64.9559H369.143V86.2961L410.286 43.6168Z" fill="#1755F4"/>
<path d="M471.429 0.937408L430.286 43.6168L471.429 86.2961V54.2869L512.572 22.2766H471.429V0.937408Z" fill="#1755F4"/>
<path d="M574.286 43.6168L533.146 0.937408V32.9467L492 64.9559H533.146V86.2961L574.286 43.6168Z" fill="#1755F4"/>
<path d="M635.426 0.937408L594.286 43.6168L635.426 86.2961V54.2869L676.576 22.2766H635.426V0.937408Z" fill="#1755F4"/>
<path d="M738.286 43.6168L697.146 0.937408V32.9467L655.996 64.9559H697.146V86.2961L738.286 43.6168Z" fill="#1755F4"/>
<path d="M799.426 0.937408L758.286 43.6168L799.426 86.2961V54.2869L840.576 22.2766H799.426V0.937408Z" fill="#1755F4"/>
<path d="M902.286 43.6168L861.146 0.937408V32.9467L819.996 64.9559H861.146V86.2961L902.286 43.6168Z" fill="#1755F4"/>
<path d="M963.426 0.937408L922.286 43.6168L963.426 86.2961V54.2869L1004.58 22.2766H963.426V0.937408Z" fill="#1755F4"/>
<path d="M1066.29 43.6168L1025.15 0.937408V32.9467L983.996 64.9559H1025.15V86.2961L1066.29 43.6168Z" fill="#1755F4"/>
<path d="M1127.43 0.937408L1086.29 43.6168L1127.43 86.2961V54.2869L1168.58 22.2766H1127.43V0.937408Z" fill="#1755F4"/>
<path d="M1230.29 43.6168L1189.15 0.937408V32.9467L1148 64.9559H1189.15V86.2961L1230.29 43.6168Z" fill="#1755F4"/>
<path d="M1291.43 0.937408L1250.29 43.6168L1291.43 86.2961V54.2869L1332.58 22.2766H1291.43V0.937408Z" fill="#1755F4"/>
<path d="M1394.29 43.6168L1353.15 0.937408V32.9467L1312 64.9559H1353.15V86.2961L1394.29 43.6168Z" fill="#1755F4"/>
<path d="M1455.43 0.937408L1414.29 43.6168L1455.43 86.2961V54.2869L1496.58 22.2766H1455.43V0.937408Z" fill="#1755F4"/>
<path d="M1558.29 43.6168L1517.15 0.937408V32.9467L1476 64.9559H1517.15V86.2961L1558.29 43.6168Z" fill="#1755F4"/>
<path d="M1619.43 0.937408L1578.29 43.6168L1619.43 86.2961V54.2869L1660.58 22.2766H1619.43V0.937408Z" fill="#1755F4"/>
<path d="M61.4291 98.4476L20.2861 141.127L61.4291 183.806V151.797L102.572 119.787H61.4291V98.4476Z" fill="#1755F4"/>
<path d="M164.286 141.127L123.143 98.4476V130.457L82 162.466H123.143V183.806L164.286 141.127Z" fill="#1755F4"/>
<path d="M225.429 98.4476L184.286 141.127L225.429 183.806V151.797L266.572 119.787H225.429V98.4476Z" fill="#1755F4"/>
<path d="M328.286 141.127L287.143 98.4476V130.457L246 162.466H287.143V183.806L328.286 141.127Z" fill="#1755F4"/>
<path d="M389.429 98.4476L348.286 141.127L389.429 183.806V151.797L430.572 119.787H389.429V98.4476Z" fill="#1755F4"/>
<path d="M492.286 141.127L451.143 98.4476V130.457L410 162.466H451.143V183.806L492.286 141.127Z" fill="#1755F4"/>
<path d="M553.426 98.4476L512.286 141.127L553.426 183.806V151.797L594.576 119.787H553.426V98.4476Z" fill="#1755F4"/>
<path d="M656.286 141.127L615.146 98.4476V130.457L573.996 162.466H615.146V183.806L656.286 141.127Z" fill="#1755F4"/>
<path d="M717.426 98.4476L676.286 141.127L717.426 183.806V151.797L758.576 119.787H717.426V98.4476Z" fill="#1755F4"/>
<path d="M820.286 141.127L779.146 98.4476V130.457L737.996 162.466H779.146V183.806L820.286 141.127Z" fill="#1755F4"/>
<path d="M881.426 98.4476L840.286 141.127L881.426 183.806V151.797L922.576 119.787H881.426V98.4476Z" fill="#1755F4"/>
<path d="M984.286 141.127L943.146 98.4476V130.457L901.996 162.466H943.146V183.806L984.286 141.127Z" fill="#1755F4"/>
<path d="M1045.43 98.4476L1004.29 141.127L1045.43 183.806V151.797L1086.58 119.787H1045.43V98.4476Z" fill="#1755F4"/>
<path d="M1148.29 141.127L1107.15 98.4476V130.457L1066 162.466H1107.15V183.806L1148.29 141.127Z" fill="#1755F4"/>
<path d="M1209.43 98.4476L1168.29 141.127L1209.43 183.806V151.797L1250.58 119.787H1209.43V98.4476Z" fill="#1755F4"/>
<path d="M1312.29 141.127L1271.15 98.4476V130.457L1230 162.466H1271.15V183.806L1312.29 141.127Z" fill="#1755F4"/>
<path d="M1373.43 98.4476L1332.29 141.127L1373.43 183.806V151.797L1414.58 119.787H1373.43V98.4476Z" fill="#1755F4"/>
<path d="M1476.29 141.127L1435.15 98.4476V130.457L1394 162.466H1435.15V183.806L1476.29 141.127Z" fill="#1755F4"/>
<path d="M1537.43 98.4476L1496.29 141.127L1537.43 183.806V151.797L1578.58 119.787H1537.43V98.4476Z" fill="#1755F4"/>
<path d="M1640.29 141.127L1599.15 98.4476V130.457L1558 162.466H1599.15V183.806L1640.29 141.127Z" fill="#1755F4"/>
<path d="M82.286 238.637L41.143 195.958V227.967L0 259.976H41.143V281.316L82.286 238.637Z" fill="#1755F4"/>
<path d="M143.429 195.958L102.286 238.637L143.429 281.316V249.307L184.572 217.297H143.429V195.958Z" fill="#1755F4"/>
<path d="M246.286 238.637L205.143 195.958V227.967L164 259.976H205.143V281.316L246.286 238.637Z" fill="#1755F4"/>
<path d="M307.429 195.958L266.286 238.637L307.429 281.316V249.307L348.572 217.297H307.429V195.958Z" fill="#1755F4"/>
<path d="M410.286 238.637L369.143 195.958V227.967L328 259.976H369.143V281.316L410.286 238.637Z" fill="#1755F4"/>
<path d="M471.429 195.958L430.286 238.637L471.429 281.316V249.307L512.572 217.297H471.429V195.958Z" fill="#1755F4"/>
<path d="M574.286 238.637L533.146 195.958V227.967L492 259.976H533.146V281.316L574.286 238.637Z" fill="#1755F4"/>
<path d="M635.426 195.958L594.286 238.637L635.426 281.316V249.307L676.576 217.297H635.426V195.958Z" fill="#1755F4"/>
<path d="M738.286 238.637L697.146 195.958V227.967L655.996 259.976H697.146V281.316L738.286 238.637Z" fill="#1755F4"/>
<path d="M799.426 195.958L758.286 238.637L799.426 281.316V249.307L840.576 217.297H799.426V195.958Z" fill="#1755F4"/>
<path d="M902.286 238.637L861.146 195.958V227.967L819.996 259.976H861.146V281.316L902.286 238.637Z" fill="#1755F4"/>
<path d="M963.426 195.958L922.286 238.637L963.426 281.316V249.307L1004.58 217.297H963.426V195.958Z" fill="#1755F4"/>
<path d="M1066.29 238.637L1025.15 195.958V227.967L983.996 259.976H1025.15V281.316L1066.29 238.637Z" fill="#1755F4"/>
<path d="M1127.43 195.958L1086.29 238.637L1127.43 281.316V249.307L1168.58 217.297H1127.43V195.958Z" fill="#1755F4"/>
<path d="M1230.29 238.637L1189.15 195.958V227.967L1148 259.976H1189.15V281.316L1230.29 238.637Z" fill="#1755F4"/>
<path d="M1291.43 195.958L1250.29 238.637L1291.43 281.316V249.307L1332.58 217.297H1291.43V195.958Z" fill="#1755F4"/>
<path d="M1394.29 238.637L1353.15 195.958V227.967L1312 259.976H1353.15V281.316L1394.29 238.637Z" fill="#1755F4"/>
<path d="M1455.43 195.958L1414.29 238.637L1455.43 281.316V249.307L1496.58 217.297H1455.43V195.958Z" fill="#1755F4"/>
<path d="M1558.29 238.637L1517.15 195.958V227.967L1476 259.976H1517.15V281.316L1558.29 238.637Z" fill="#1755F4"/>
<path d="M1619.43 195.958L1578.29 238.637L1619.43 281.316V249.307L1660.58 217.297H1619.43V195.958Z" fill="#1755F4"/>
<path d="M61.4291 293.468L20.2861 336.147L61.4291 378.827V346.817L102.572 314.807H61.4291V293.468Z" fill="#1755F4"/>
<path d="M164.286 336.147L123.143 293.468V325.477L82 357.486H123.143V378.827L164.286 336.147Z" fill="#1755F4"/>
<path d="M225.429 293.468L184.286 336.147L225.429 378.827V346.817L266.572 314.807H225.429V293.468Z" fill="#1755F4"/>
<path d="M328.286 336.147L287.143 293.468V325.477L246 357.486H287.143V378.827L328.286 336.147Z" fill="#1755F4"/>
<path d="M389.429 293.468L348.286 336.147L389.429 378.827V346.817L430.572 314.807H389.429V293.468Z" fill="#1755F4"/>
<path d="M492.286 336.147L451.143 293.468V325.477L410 357.486H451.143V378.827L492.286 336.147Z" fill="#1755F4"/>
<path d="M553.426 293.468L512.286 336.147L553.426 378.827V346.817L594.576 314.807H553.426V293.468Z" fill="#1755F4"/>
<path d="M656.286 336.147L615.146 293.468V325.477L573.996 357.486H615.146V378.827L656.286 336.147Z" fill="#1755F4"/>
<path d="M717.426 293.468L676.286 336.147L717.426 378.827V346.817L758.576 314.807H717.426V293.468Z" fill="#1755F4"/>
<path d="M820.286 336.147L779.146 293.468V325.477L737.996 357.486H779.146V378.827L820.286 336.147Z" fill="#1755F4"/>
<path d="M881.426 293.468L840.286 336.147L881.426 378.827V346.817L922.576 314.807H881.426V293.468Z" fill="#1755F4"/>
<path d="M984.286 336.147L943.146 293.468V325.477L901.996 357.486H943.146V378.827L984.286 336.147Z" fill="#1755F4"/>
<path d="M1045.43 293.468L1004.29 336.147L1045.43 378.827V346.817L1086.58 314.807H1045.43V293.468Z" fill="#1755F4"/>
<path d="M1148.29 336.147L1107.15 293.468V325.477L1066 357.486H1107.15V378.827L1148.29 336.147Z" fill="#1755F4"/>
<path d="M1209.43 293.468L1168.29 336.147L1209.43 378.827V346.817L1250.58 314.807H1209.43V293.468Z" fill="#1755F4"/>
<path d="M1312.29 336.147L1271.15 293.468V325.477L1230 357.486H1271.15V378.827L1312.29 336.147Z" fill="#1755F4"/>
<path d="M1373.43 293.468L1332.29 336.147L1373.43 378.827V346.817L1414.58 314.807H1373.43V293.468Z" fill="#1755F4"/>
<path d="M1476.29 336.147L1435.15 293.468V325.477L1394 357.486H1435.15V378.827L1476.29 336.147Z" fill="#1755F4"/>
<path d="M1537.43 293.468L1496.29 336.147L1537.43 378.827V346.817L1578.58 314.807H1537.43V293.468Z" fill="#1755F4"/>
<path d="M1640.29 336.147L1599.15 293.468V325.477L1558 357.486H1599.15V378.827L1640.29 336.147Z" fill="#1755F4"/>
<path d="M82.286 433.657L41.143 390.978V422.987L0 454.997H41.143V476.337L82.286 433.657Z" fill="#1755F4"/>
<path d="M143.429 390.978L102.286 433.657L143.429 476.337V444.328L184.572 412.317H143.429V390.978Z" fill="#1755F4"/>
<path d="M246.286 433.657L205.143 390.978V422.987L164 454.997H205.143V476.337L246.286 433.657Z" fill="#1755F4"/>
<path d="M307.429 390.978L266.286 433.657L307.429 476.337V444.328L348.572 412.317H307.429V390.978Z" fill="#1755F4"/>
<path d="M410.286 433.657L369.143 390.978V422.987L328 454.997H369.143V476.337L410.286 433.657Z" fill="#1755F4"/>
<path d="M471.429 390.978L430.286 433.657L471.429 476.337V444.328L512.572 412.317H471.429V390.978Z" fill="#1755F4"/>
<path d="M574.286 433.657L533.146 390.978V422.987L492 454.997H533.146V476.337L574.286 433.657Z" fill="#1755F4"/>
<path d="M635.426 390.978L594.286 433.657L635.426 476.337V444.328L676.576 412.317H635.426V390.978Z" fill="#1755F4"/>
<path d="M738.286 433.657L697.146 390.978V422.987L655.996 454.997H697.146V476.337L738.286 433.657Z" fill="#1755F4"/>
<path d="M799.426 390.978L758.286 433.657L799.426 476.337V444.328L840.576 412.317H799.426V390.978Z" fill="#1755F4"/>
<path d="M902.286 433.657L861.146 390.978V422.987L819.996 454.997H861.146V476.337L902.286 433.657Z" fill="#1755F4"/>
<path d="M963.426 390.978L922.286 433.657L963.426 476.337V444.328L1004.58 412.317H963.426V390.978Z" fill="#1755F4"/>
<path d="M1066.29 433.657L1025.15 390.978V422.987L983.996 454.997H1025.15V476.337L1066.29 433.657Z" fill="#1755F4"/>
<path d="M1127.43 390.978L1086.29 433.657L1127.43 476.337V444.328L1168.58 412.317H1127.43V390.978Z" fill="#1755F4"/>
<path d="M1230.29 433.657L1189.15 390.978V422.987L1148 454.997H1189.15V476.337L1230.29 433.657Z" fill="#1755F4"/>
<path d="M1291.43 390.978L1250.29 433.657L1291.43 476.337V444.328L1332.58 412.317H1291.43V390.978Z" fill="#1755F4"/>
<path d="M1394.29 433.657L1353.15 390.978V422.987L1312 454.997H1353.15V476.337L1394.29 433.657Z" fill="#1755F4"/>
<path d="M1455.43 390.978L1414.29 433.657L1455.43 476.337V444.328L1496.58 412.317H1455.43V390.978Z" fill="#1755F4"/>
<path d="M1558.29 433.657L1517.15 390.978V422.987L1476 454.997H1517.15V476.337L1558.29 433.657Z" fill="#1755F4"/>
<path d="M1619.43 390.978L1578.29 433.657L1619.43 476.337V444.328L1660.58 412.317H1619.43V390.978Z" fill="#1755F4"/>
<path d="M61.4291 488.488L20.2861 531.168L61.4291 573.847V541.838L102.572 509.827H61.4291V488.488Z" fill="#1755F4"/>
<path d="M164.286 531.168L123.143 488.488V520.497L82 552.507H123.143V573.847L164.286 531.168Z" fill="#1755F4"/>
<path d="M225.429 488.488L184.286 531.168L225.429 573.847V541.838L266.572 509.827H225.429V488.488Z" fill="#1755F4"/>
<path d="M328.286 531.168L287.143 488.488V520.497L246 552.507H287.143V573.847L328.286 531.168Z" fill="#1755F4"/>
<path d="M389.429 488.488L348.286 531.168L389.429 573.847V541.838L430.572 509.827H389.429V488.488Z" fill="#1755F4"/>
<path d="M492.286 531.168L451.143 488.488V520.497L410 552.507H451.143V573.847L492.286 531.168Z" fill="#1755F4"/>
<path d="M553.426 488.488L512.286 531.168L553.426 573.847V541.838L594.576 509.827H553.426V488.488Z" fill="#1755F4"/>
<path d="M656.286 531.168L615.146 488.488V520.497L573.996 552.507H615.146V573.847L656.286 531.168Z" fill="#1755F4"/>
<path d="M717.426 488.488L676.286 531.168L717.426 573.847V541.838L758.576 509.827H717.426V488.488Z" fill="#1755F4"/>
<path d="M820.286 531.168L779.146 488.488V520.497L737.996 552.507H779.146V573.847L820.286 531.168Z" fill="#1755F4"/>
<path d="M881.426 488.488L840.286 531.168L881.426 573.847V541.838L922.576 509.827H881.426V488.488Z" fill="#1755F4"/>
<path d="M984.286 531.168L943.146 488.488V520.497L901.996 552.507H943.146V573.847L984.286 531.168Z" fill="#1755F4"/>
<path d="M1045.43 488.488L1004.29 531.168L1045.43 573.847V541.838L1086.58 509.827H1045.43V488.488Z" fill="#1755F4"/>
<path d="M1148.29 531.168L1107.15 488.488V520.497L1066 552.507H1107.15V573.847L1148.29 531.168Z" fill="#1755F4"/>
<path d="M1209.43 488.488L1168.29 531.168L1209.43 573.847V541.838L1250.58 509.827H1209.43V488.488Z" fill="#1755F4"/>
<path d="M1312.29 531.168L1271.15 488.488V520.497L1230 552.507H1271.15V573.847L1312.29 531.168Z" fill="#1755F4"/>
<path d="M1373.43 488.488L1332.29 531.168L1373.43 573.847V541.838L1414.58 509.827H1373.43V488.488Z" fill="#1755F4"/>
<path d="M1476.29 531.168L1435.15 488.488V520.497L1394 552.507H1435.15V573.847L1476.29 531.168Z" fill="#1755F4"/>
<path d="M1537.43 488.488L1496.29 531.168L1537.43 573.847V541.838L1578.58 509.827H1537.43V488.488Z" fill="#1755F4"/>
<path d="M1640.29 531.168L1599.15 488.488V520.497L1558 552.507H1599.15V573.847L1640.29 531.168Z" fill="#1755F4"/>
<path d="M82.286 628.678L41.143 585.998V618.008L0 650.017H41.143V671.357L82.286 628.678Z" fill="#1755F4"/>
<path d="M143.429 585.998L102.286 628.678L143.429 671.357V639.348L184.572 607.338H143.429V585.998Z" fill="#1755F4"/>
<path d="M246.286 628.678L205.143 585.998V618.008L164 650.017H205.143V671.357L246.286 628.678Z" fill="#1755F4"/>
<path d="M307.429 585.998L266.286 628.678L307.429 671.357V639.348L348.572 607.338H307.429V585.998Z" fill="#1755F4"/>
<path d="M410.286 628.678L369.143 585.998V618.008L328 650.017H369.143V671.357L410.286 628.678Z" fill="#1755F4"/>
<path d="M471.429 585.998L430.286 628.678L471.429 671.357V639.348L512.572 607.338H471.429V585.998Z" fill="#1755F4"/>
<path d="M574.286 628.678L533.146 585.998V618.008L492 650.017H533.146V671.357L574.286 628.678Z" fill="#1755F4"/>
<path d="M635.426 585.998L594.286 628.678L635.426 671.357V639.348L676.576 607.338H635.426V585.998Z" fill="#1755F4"/>
<path d="M738.286 628.678L697.146 585.998V618.008L655.996 650.017H697.146V671.357L738.286 628.678Z" fill="#1755F4"/>
<path d="M799.426 585.998L758.286 628.678L799.426 671.357V639.348L840.576 607.338H799.426V585.998Z" fill="#1755F4"/>
<path d="M902.286 628.678L861.146 585.998V618.008L819.996 650.017H861.146V671.357L902.286 628.678Z" fill="#1755F4"/>
<path d="M963.426 585.998L922.286 628.678L963.426 671.357V639.348L1004.58 607.338H963.426V585.998Z" fill="#1755F4"/>
<path d="M1066.29 628.678L1025.15 585.998V618.008L983.996 650.017H1025.15V671.357L1066.29 628.678Z" fill="#1755F4"/>
<path d="M1127.43 585.998L1086.29 628.678L1127.43 671.357V639.348L1168.58 607.338H1127.43V585.998Z" fill="#1755F4"/>
<path d="M1230.29 628.678L1189.15 585.998V618.008L1148 650.017H1189.15V671.357L1230.29 628.678Z" fill="#1755F4"/>
<path d="M1291.43 585.998L1250.29 628.678L1291.43 671.357V639.348L1332.58 607.338H1291.43V585.998Z" fill="#1755F4"/>
<path d="M1394.29 628.678L1353.15 585.998V618.008L1312 650.017H1353.15V671.357L1394.29 628.678Z" fill="#1755F4"/>
<path d="M1455.43 585.998L1414.29 628.678L1455.43 671.357V639.348L1496.58 607.338H1455.43V585.998Z" fill="#1755F4"/>
<path d="M1558.29 628.678L1517.15 585.998V618.008L1476 650.017H1517.15V671.357L1558.29 628.678Z" fill="#1755F4"/>
<path d="M1619.43 585.998L1578.29 628.678L1619.43 671.357V639.348L1660.58 607.338H1619.43V585.998Z" fill="#1755F4"/>
<path d="M61.4291 683.509L20.2861 726.188L61.4291 768.867V736.858L102.572 704.848H61.4291V683.509Z" fill="#1755F4"/>
<path d="M164.286 726.188L123.143 683.509V715.518L82 747.527H123.143V768.867L164.286 726.188Z" fill="#1755F4"/>
<path d="M225.429 683.509L184.286 726.188L225.429 768.867V736.858L266.572 704.848H225.429V683.509Z" fill="#1755F4"/>
<path d="M328.286 726.188L287.143 683.509V715.518L246 747.527H287.143V768.867L328.286 726.188Z" fill="#1755F4"/>
<path d="M389.429 683.509L348.286 726.188L389.429 768.867V736.858L430.572 704.848H389.429V683.509Z" fill="#1755F4"/>
<path d="M492.286 726.188L451.143 683.509V715.518L410 747.527H451.143V768.867L492.286 726.188Z" fill="#1755F4"/>
<path d="M553.426 683.509L512.286 726.188L553.426 768.867V736.858L594.576 704.848H553.426V683.509Z" fill="#1755F4"/>
<path d="M656.286 726.188L615.146 683.509V715.518L573.996 747.527H615.146V768.867L656.286 726.188Z" fill="#1755F4"/>
<path d="M717.426 683.509L676.286 726.188L717.426 768.867V736.858L758.576 704.848H717.426V683.509Z" fill="#1755F4"/>
<path d="M820.286 726.188L779.146 683.509V715.518L737.996 747.527H779.146V768.867L820.286 726.188Z" fill="#1755F4"/>
<path d="M881.426 683.509L840.286 726.188L881.426 768.867V736.858L922.576 704.848H881.426V683.509Z" fill="#1755F4"/>
<path d="M984.286 726.188L943.146 683.509V715.518L901.996 747.527H943.146V768.867L984.286 726.188Z" fill="#1755F4"/>
<path d="M1045.43 683.509L1004.29 726.188L1045.43 768.867V736.858L1086.58 704.848H1045.43V683.509Z" fill="#1755F4"/>
<path d="M1373.43 683.509L1332.29 726.188L1373.43 768.867V736.858L1414.58 704.848H1373.43V683.509Z" fill="#1755F4"/>
<path d="M1148.29 726.188L1107.15 683.509V715.518L1066 747.527H1107.15V768.867L1148.29 726.188Z" fill="#1755F4"/>
<path d="M1209.43 683.509L1168.29 726.188L1209.43 768.867V736.858L1250.58 704.848H1209.43V683.509Z" fill="#1755F4"/>
<path d="M1312.29 726.188L1271.15 683.509V715.518L1230 747.527H1271.15V768.867L1312.29 726.188Z" fill="#1755F4"/>
<path d="M1476.29 726.188L1435.15 683.509V715.518L1394 747.527H1435.15V768.867L1476.29 726.188Z" fill="#1755F4"/>
<path d="M1537.43 683.509L1496.29 726.188L1537.43 768.867V736.858L1578.58 704.848H1537.43V683.509Z" fill="#1755F4"/>
<path d="M1640.29 726.188L1599.15 683.509V715.518L1558 747.527H1599.15V768.867L1640.29 726.188Z" fill="#1755F4"/>
<path d="M82.286 823.698L41.143 781.019V813.028L0 845.037H41.143V866.377L82.286 823.698Z" fill="#1755F4"/>
<path d="M143.429 781.019L102.286 823.698L143.429 866.377V834.368L184.572 802.358H143.429V781.019Z" fill="#1755F4"/>
<path d="M246.286 823.698L205.143 781.019V813.028L164 845.037H205.143V866.377L246.286 823.698Z" fill="#1755F4"/>
<path d="M307.429 781.019L266.286 823.698L307.429 866.377V834.368L348.572 802.358H307.429V781.019Z" fill="#1755F4"/>
<path d="M410.286 823.698L369.143 781.019V813.028L328 845.037H369.143V866.377L410.286 823.698Z" fill="#1755F4"/>
<path d="M471.429 781.019L430.286 823.698L471.429 866.377V834.368L512.572 802.358H471.429V781.019Z" fill="#1755F4"/>
<path d="M574.286 823.698L533.146 781.019V813.028L492 845.037H533.146V866.377L574.286 823.698Z" fill="#1755F4"/>
<path d="M635.426 781.019L594.286 823.698L635.426 866.377V834.368L676.576 802.358H635.426V781.019Z" fill="#1755F4"/>
<path d="M738.286 823.698L697.146 781.019V813.028L655.996 845.037H697.146V866.377L738.286 823.698Z" fill="#1755F4"/>
<path d="M799.426 781.019L758.286 823.698L799.426 866.377V834.368L840.576 802.358H799.426V781.019Z" fill="#1755F4"/>
<path d="M902.286 823.698L861.146 781.019V813.028L819.996 845.037H861.146V866.377L902.286 823.698Z" fill="#1755F4"/>
<path d="M963.426 781.019L922.286 823.698L963.426 866.377V834.368L1004.58 802.358H963.426V781.019Z" fill="#1755F4"/>
<path d="M1066.29 823.698L1025.15 781.019V813.028L983.996 845.037H1025.15V866.377L1066.29 823.698Z" fill="#1755F4"/>
<path d="M1127.43 781.019L1086.29 823.698L1127.43 866.377V834.368L1168.58 802.358H1127.43V781.019Z" fill="#1755F4"/>
<path d="M1230.29 823.698L1189.15 781.019V813.028L1148 845.037H1189.15V866.377L1230.29 823.698Z" fill="#1755F4"/>
<path d="M1291.43 781.019L1250.29 823.698L1291.43 866.377V834.368L1332.58 802.358H1291.43V781.019Z" fill="#1755F4"/>
<path d="M1394.29 823.698L1353.15 781.019V813.028L1312 845.037H1353.15V866.377L1394.29 823.698Z" fill="#1755F4"/>
<path d="M1455.43 781.019L1414.29 823.698L1455.43 866.377V834.368L1496.58 802.358H1455.43V781.019Z" fill="#1755F4"/>
<path d="M1558.29 823.698L1517.15 781.019V813.028L1476 845.037H1517.15V866.377L1558.29 823.698Z" fill="#1755F4"/>
<path d="M1619.43 781.019L1578.29 823.698L1619.43 866.377V834.368L1660.58 802.358H1619.43V781.019Z" fill="#1755F4"/>
<path d="M61.4291 878.529L20.2861 921.208L61.4291 963.892V931.878L102.572 899.868H61.4291V878.529Z" fill="#1755F4"/>
<path d="M164.286 921.208L123.143 878.529V910.538L82 942.543H123.143V963.892L164.286 921.208Z" fill="#1755F4"/>
<path d="M225.429 878.529L184.286 921.208L225.429 963.892V931.878L266.572 899.868H225.429V878.529Z" fill="#1755F4"/>
<path d="M328.286 921.208L287.143 878.529V910.538L246 942.543H287.143V963.892L328.286 921.208Z" fill="#1755F4"/>
<path d="M389.429 878.529L348.286 921.208L389.429 963.892V931.878L430.572 899.868H389.429V878.529Z" fill="#1755F4"/>
<path d="M492.286 921.208L451.143 878.529V910.538L410 942.543H451.143V963.892L492.286 921.208Z" fill="#1755F4"/>
<path d="M553.426 878.529L512.286 921.208L553.426 963.892V931.878L594.576 899.868H553.426V878.529Z" fill="#1755F4"/>
<path d="M656.286 921.208L615.146 878.529V910.538L573.996 942.543H615.146V963.892L656.286 921.208Z" fill="#1755F4"/>
<path d="M717.426 878.529L676.286 921.208L717.426 963.892V931.878L758.576 899.868H717.426V878.529Z" fill="#1755F4"/>
<path d="M820.286 921.208L779.146 878.529V910.538L737.996 942.543H779.146V963.892L820.286 921.208Z" fill="#1755F4"/>
<path d="M881.426 878.529L840.286 921.208L881.426 963.892V931.878L922.576 899.868H881.426V878.529Z" fill="#1755F4"/>
<path d="M984.286 921.208L943.146 878.529V910.538L901.996 942.543H943.146V963.892L984.286 921.208Z" fill="#1755F4"/>
<path d="M1045.43 878.529L1004.29 921.208L1045.43 963.892V931.878L1086.58 899.868H1045.43V878.529Z" fill="#1755F4"/>
<path d="M1148.29 921.208L1107.15 878.529V910.538L1066 942.543H1107.15V963.892L1148.29 921.208Z" fill="#1755F4"/>
<path d="M1209.43 878.529L1168.29 921.208L1209.43 963.892V931.878L1250.58 899.868H1209.43V878.529Z" fill="#1755F4"/>
<path d="M1312.29 921.208L1271.15 878.529V910.538L1230 942.543H1271.15V963.892L1312.29 921.208Z" fill="#1755F4"/>
<path d="M1373.43 878.529L1332.29 921.208L1373.43 963.892V931.878L1414.58 899.868H1373.43V878.529Z" fill="#1755F4"/>
<path d="M1476.29 921.208L1435.15 878.529V910.538L1394 942.543H1435.15V963.892L1476.29 921.208Z" fill="#1755F4"/>
<path d="M1537.43 878.529L1496.29 921.208L1537.43 963.892V931.878L1578.58 899.868H1537.43V878.529Z" fill="#1755F4"/>
<path d="M1640.29 921.208L1599.15 878.529V910.538L1558 942.543H1599.15V963.892L1640.29 921.208Z" fill="#1755F4"/>
</g>
</svg>
