<?xml version="1.0" encoding="UTF-8"?><svg id="Layer_2" xmlns="http://www.w3.org/2000/svg" viewBox="0 0 111.11 113.84"><defs><style>.cls-1{fill:#fff;stroke-width:0px;}</style></defs><g id="Layer_1-2"><path class="cls-1" d="m25.4,100.37c1,0,2-.2,3.1-.5.3-.1.5-.4.5-.7v-18c0-.3-.2-.6-.5-.7-1.1-.3-2.1-.5-3.1-.5-5.6,0-10.2,4.6-10.2,10.2,0,5.6,4.5,10.2,10.2,10.2"/><path class="cls-1" d="m25.4,34.87c1,0,2-.2,3.1-.5.3-.1.5-.4.5-.7V15.67c0-.3-.2-.6-.5-.7-1.1-.3-2.1-.5-3.1-.5-5.6,0-10.2,4.6-10.2,10.2s4.6,10.2,10.2,10.2"/><path class="cls-1" d="m9.2,66.67c-5.1,0-9.2-4.1-9.2-9.2,0-5.1,4.1-9.2,9.2-9.2s9.2,4.1,9.2,9.2c.1,5.1-4.1,9.2-9.2,9.2"/><path class="cls-1" d="m52.61.48c0-.4-.4-.6-.7-.4-3.4,1.7-5.7,5.3-5.7,9.3s2.3,7.6,5.7,9.3c.3.2.7-.1.7-.4V.48Z"/><path class="cls-1" d="m52.59,95.58c0-.4-.4-.6-.7-.4-3.4,1.7-5.7,5.3-5.7,9.3s2.3,7.6,5.7,9.3c.3.2.7-.1.7-.4v-17.8Z"/><path class="cls-1" d="m97.05,24.8c2.9,0,2.9-4.5,0-4.5s-2.9,4.5,0,4.5h0Z"/><path class="cls-1" d="m97.05,95.36c2.9,0,2.9-4.5,0-4.5s-2.9,4.5,0,4.5h0Z"/><path class="cls-1" d="m108.94,60.18c2.9,0,2.9-4.5,0-4.5s-2.9,4.5,0,4.5h0Z"/><path class="cls-1" d="m71.98,108.61c2.9,0,2.9-4.5,0-4.5s-2.9,4.5,0,4.5h0Z"/><path class="cls-1" d="m71.98,13.18c2.9,0,2.9-4.5,0-4.5s-2.9,4.5,0,4.5h0Z"/></g></svg>
