<svg width="171" height="40" viewBox="0 0 171 40" fill="none" xmlns="http://www.w3.org/2000/svg"><path d="M0 20.0078L14.5656 5.44214V12.725H29.1313L14.5656 23.6492V34.5734L0 20.0078Z" fill="white"></path><path d="M50.9797 20.0078L36.414 34.5734V27.2906H21.8484L36.414 16.3664V5.44214L50.9797 20.0078Z" fill="white"></path><path d="M79.6396 32.7969V7.30591H85.8008V18.0848H86.1369L94.5634 7.30591H101.82L92.7835 18.6823L101.982 32.7969H94.6131L88.2653 22.7773L85.8008 25.889V32.7969H79.6396Z" fill="white"></path><path d="M57.4476 32.7969V29.2869L69.8322 12.3095H57.4601V7.30591H77.6239V10.8159L65.2393 27.7933H77.6114V32.7969H57.4476Z" fill="white"></path><path d="M163.211 33.1952C161.418 33.1952 159.875 32.772 158.58 31.9256C157.286 31.0792 156.29 29.9134 155.593 28.4281C154.896 26.9428 154.548 25.2458 154.548 23.3373C154.548 21.3956 154.904 19.6821 155.618 18.1968C156.34 16.7032 157.344 15.5373 158.63 14.6993C159.925 13.8529 161.435 13.4297 163.161 13.4297C164.505 13.4297 165.717 13.6786 166.795 14.1765C167.874 14.6744 168.758 15.3714 169.446 16.2676C170.135 17.1637 170.562 18.2093 170.728 19.4041H167.791C167.567 18.5329 167.069 17.7612 166.297 17.089C165.534 16.4086 164.505 16.0684 163.211 16.0684C162.065 16.0684 161.061 16.3671 160.198 16.9646C159.344 17.5537 158.676 18.3877 158.195 19.4664C157.722 20.5368 157.485 21.7939 157.485 23.2378C157.485 24.7148 157.717 26.001 158.182 27.0963C158.655 28.1916 159.319 29.0421 160.174 29.6479C161.037 30.2536 162.049 30.5565 163.211 30.5565C163.974 30.5565 164.667 30.4237 165.289 30.1582C165.912 29.8926 166.438 29.5109 166.87 29.0131C167.301 28.5152 167.608 27.9178 167.791 27.2207H170.728C170.562 28.3492 170.152 29.3657 169.496 30.2702C168.849 31.1664 167.99 31.88 166.92 32.411C165.858 32.9338 164.621 33.1952 163.211 33.1952Z" fill="white"></path><path d="M139.631 21.2961V32.7969H136.693V13.6786H139.531V16.6659H139.78C140.228 15.695 140.909 14.915 141.821 14.3259C142.734 13.7284 143.912 13.4297 145.356 13.4297C146.651 13.4297 147.783 13.6952 148.754 14.2263C149.725 14.749 150.48 15.5456 151.02 16.6161C151.559 17.6782 151.829 19.0224 151.829 20.6488V32.7969H148.891V20.848C148.891 19.3461 148.501 18.1761 147.721 17.338C146.941 16.4916 145.871 16.0684 144.51 16.0684C143.572 16.0684 142.734 16.2717 141.996 16.6783C141.265 17.0849 140.689 17.6782 140.266 18.4582C139.842 19.2382 139.631 20.1841 139.631 21.2961Z" fill="white"></path><path d="M120.827 39.9663C120.33 39.9663 119.886 39.9249 119.496 39.8419C119.106 39.7672 118.836 39.6925 118.687 39.6178L119.433 37.0289C120.147 37.2115 120.778 37.2778 121.325 37.228C121.873 37.1783 122.358 36.9335 122.782 36.4937C123.213 36.0622 123.607 35.361 123.964 34.3902L124.512 32.8966L117.442 13.6787H120.628L125.906 28.9136H126.105L131.382 13.6787H134.569L126.453 35.5851C126.088 36.5725 125.636 37.3899 125.097 38.0371C124.557 38.6926 123.931 39.178 123.217 39.4934C122.512 39.8087 121.715 39.9663 120.827 39.9663Z" fill="white"></path><path d="M115.918 17.9603L113.279 18.7071C113.113 18.2673 112.868 17.84 112.545 17.4251C112.229 17.0019 111.798 16.6534 111.25 16.3796C110.703 16.1057 110.001 15.9688 109.147 15.9688C107.977 15.9688 107.002 16.2385 106.222 16.7779C105.45 17.3089 105.064 17.9852 105.064 18.8067C105.064 19.5369 105.33 20.1136 105.861 20.5368C106.392 20.96 107.222 21.3127 108.35 21.5948L111.188 22.2918C112.897 22.7067 114.171 23.3415 115.009 24.1962C115.847 25.0425 116.266 26.1337 116.266 27.4697C116.266 28.565 115.951 29.5441 115.32 30.4071C114.698 31.2701 113.827 31.9505 112.707 32.4484C111.586 32.9463 110.284 33.1952 108.798 33.1952C106.848 33.1952 105.234 32.772 103.956 31.9256C102.679 31.0792 101.87 29.8429 101.529 28.2165L104.317 27.5195C104.583 28.5484 105.085 29.3201 105.823 29.8346C106.57 30.349 107.545 30.6063 108.748 30.6063C110.118 30.6063 111.205 30.3158 112.009 29.735C112.823 29.1458 113.229 28.4405 113.229 27.619C113.229 26.9552 112.997 26.3992 112.532 25.9512C112.068 25.4948 111.354 25.1546 110.391 24.9305L107.205 24.1837C105.454 23.7688 104.168 23.1257 103.347 22.2545C102.533 21.3749 102.127 20.2754 102.127 18.9561C102.127 17.8773 102.43 16.9231 103.035 16.0933C103.649 15.2635 104.483 14.6121 105.537 14.1392C106.599 13.6662 107.802 13.4297 109.147 13.4297C111.039 13.4297 112.524 13.8446 113.603 14.6744C114.69 15.5042 115.461 16.5995 115.918 17.9603Z" fill="white"></path></svg>
